<svg xmlns="http://www.w3.org/2000/svg"><defs><symbol id="github" viewBox="0 0 32 32"><circle cx="16" cy="16" r="16"/><path d="M16 6.588c-5.17 0-9.412 4.242-9.412 9.412 0 4.411 3.096 8.418 7.206 9.412v-3.114c-.407.089-.782.092-1.197-.03-.556-.165-1.008-.535-1.343-1.1-.214-.361-.593-.752-.988-.723l-.097-1.1c.855-.072 1.594.522 2.033 1.26.195.327.42.52.708.605.278.082.577.042.926-.08.087-.698.407-.96.648-1.327-2.451-.366-3.428-1.667-3.816-2.693-.514-1.363-.238-3.066.67-4.142.018-.021.05-.076.038-.114-.417-1.259.09-2.3.11-2.41.48.142.558-.143 2.088.786l.264.159c.11.066.076.028.187.02A7.986 7.986 0 0 1 16 11.13a8.021 8.021 0 0 1 2.002.285l.086.008c-.008 0 .023-.005.075-.036 1.91-1.157 1.842-.779 2.354-.945.019.11.52 1.168.108 2.41-.056.172 1.656 1.74.707 4.256-.388 1.027-1.365 2.328-3.816 2.693v.001c.314.479.692.734.69 1.722v3.887c4.11-.994 7.206-5 7.206-9.412 0-5.17-4.242-9.412-9.412-9.412Z" fill="#fff"/></symbol><symbol id="telegram" viewBox="0 0 33 32"><g clip-path="url('#clip0_57354_400')"><circle cx="16.235" cy="16" r="16"/><path d="m13.102 18.375-.317 4.17c.454 0 .651-.183.887-.401l2.13-1.9 4.415 3.017c.81.42 1.38.199 1.599-.695l2.897-12.673h.001c.257-1.118-.433-1.554-1.222-1.28L6.46 14.699c-1.162.42-1.145 1.026-.198 1.3l4.355 1.264 10.114-5.907c.476-.294.91-.131.553.163l-8.181 6.856Z" fill="#fff"/></g><defs><clipPath id="clip0_57354_400"><path fill="#fff" transform="translate(.235)" d="M0 0h32v32H0z"/></clipPath></defs></symbol><symbol id="facebook" viewBox="0 0 33 32"><g clip-path="url('#clip0_57354_393')"><path d="M16.47 32c8.837 0 16-7.163 16-16s-7.163-16-16-16c-8.836 0-16 7.163-16 16s7.164 16 16 16Z"/><path d="M20.916 15.981h-2.61V25.6h-3.955V15.98h-1.88v-3.38h1.88v-2.187c0-1.565.74-4.014 3.99-4.014l2.93.012v3.281h-2.126c-.348 0-.839.176-.839.922v1.99h2.956l-.346 3.376Z" fill="#fff"/></g><defs><clipPath id="clip0_57354_393"><path fill="#fff" transform="translate(.47)" d="M0 0h32v32H0z"/></clipPath></defs></symbol><symbol id="arrow" viewBox="0 0 7 10"><path d="m1.42 1 4.282 4L1.42 9" stroke-width="2" stroke-linecap="round" stroke-linejoin="round"/></symbol><symbol id="dot" viewBox="0 0 4 4"><circle cx="2" cy="2" r="2"/></symbol><symbol id="home" viewBox="0 0 13 12"><path d="M12.24 5.775a.578.578 0 0 0-.049-.834L6.651.16a.698.698 0 0 0-.9.01L.193 5.196a.574.574 0 0 0-.027.833l.14.143c.23.238.604.266.834.063l.415-.367v5.373a.6.6 0 0 0 .605.596h2.166a.6.6 0 0 0 .605-.596V7.482h2.764v3.759c-.005.33.234.596.568.596h2.296a.6.6 0 0 0 .604-.596V5.944l.257.222c.141.122.438.024.662-.22l.158-.17Z"/></symbol><symbol id="circle" viewBox="0 0 13 12"><circle cx="6.395" cy="6" r="6"/></symbol><symbol id="line" viewBox="0 0 180 2" fill="none" xmlns="http://www.w3.org/2000/svg"><path d="M0 1h180" stroke="#E1E1E1"/></symbol></defs></svg>